<svg width="43" height="40" viewBox="0 0 43 40" fill="none" xmlns="http://www.w3.org/2000/svg">
<path d="M41.1569 0.57051C40.8238 0.370592 40.4445 0.260338 40.0562 0.25048C39.6678 0.240623 39.2835 0.331499 38.9406 0.51426L16.9375 12.2499H4C3.00544 12.2499 2.05161 12.645 1.34835 13.3482C0.645088 14.0515 0.25 15.0053 0.25 15.9999V35.4999C0.25 36.4944 0.645088 37.4483 1.34835 38.1515C2.05161 38.8548 3.00544 39.2499 4 39.2499H20.5C21.4946 39.2499 22.4484 38.8548 23.1516 38.1515C23.8549 37.4483 24.25 36.4944 24.25 35.4999V29.4999C24.2501 29.2807 24.2178 29.0628 24.1544 28.853L20.185 15.6249L37.75 6.24989V27.2499H35.5V26.4999C35.5 25.9031 35.2629 25.3309 34.841 24.9089C34.419 24.4869 33.8467 24.2499 33.25 24.2499C32.6533 24.2499 32.081 24.4869 31.659 24.9089C31.2371 25.3309 31 25.9031 31 26.4999V27.9999C31 28.9944 31.3951 29.9483 32.0984 30.6515C32.8016 31.3548 33.7554 31.7499 34.75 31.7499H38.5C39.4946 31.7499 40.4484 31.3548 41.1516 30.6515C41.8549 29.9483 42.25 28.9944 42.25 27.9999V2.49989C42.2499 2.11127 42.1492 1.7293 41.9576 1.39118C41.7661 1.05306 41.4902 0.770324 41.1569 0.57051ZM15.8256 16.7499L18.9756 27.2499H12.25V16.7499H15.8256ZM7.75 16.7499V27.2499H4.75V16.7499H7.75ZM4.75 34.7499V31.7499H19.75V34.7499H4.75Z" fill="#03579B"/>
</svg>
