<svg width="67" height="67" viewBox="0 0 67 67" fill="none" xmlns="http://www.w3.org/2000/svg">
<path d="M33.7791 58.625C32.9881 58.625 32.3256 58.357 31.7914 57.821C31.2573 57.285 30.9893 56.6225 30.9874 55.8333C30.9874 55.5077 31.0572 55.1699 31.1968 54.82C31.3364 54.4701 31.5458 54.1565 31.8249 53.8792L44.7364 40.9677L42.7124 38.9438L29.8708 51.8552C29.5916 52.1344 29.2892 52.3438 28.9635 52.4833C28.6378 52.6229 28.2888 52.6927 27.9166 52.6927C27.1256 52.6927 26.4631 52.4256 25.9289 51.8915C25.3948 51.3574 25.1268 50.6939 25.1249 49.9011C25.1249 49.4358 25.1947 49.0515 25.3343 48.7481C25.4739 48.4447 25.66 48.1777 25.8926 47.9469L38.8041 35.0354L36.8499 33.0813L23.9385 45.9229C23.6593 46.2021 23.3569 46.4115 23.0312 46.5511C22.7055 46.6906 22.3333 46.7604 21.9145 46.7604C21.1701 46.7604 20.5187 46.4813 19.9603 45.9229C19.402 45.3646 19.1228 44.7132 19.1228 43.9688C19.1228 43.5965 19.1926 43.2476 19.3322 42.9219C19.4718 42.5962 19.6812 42.2938 19.9603 42.0146L32.8718 29.1031L30.8478 27.149L18.0062 40.0604C17.7735 40.2931 17.4944 40.4792 17.1687 40.6188C16.843 40.7583 16.4475 40.8281 15.9822 40.8281C15.1912 40.8281 14.5278 40.5601 13.9918 40.0241C13.4558 39.4881 13.1887 38.8256 13.1905 38.0365C13.1905 37.6642 13.2603 37.3153 13.3999 36.9896C13.5395 36.6639 13.7489 36.3615 14.028 36.0823L29.5916 20.5188L40.0603 31.0573C40.5721 31.5691 41.177 31.9767 41.8749 32.2801C42.5728 32.5834 43.2708 32.7342 43.9687 32.7323C45.4576 32.7323 46.7603 32.2093 47.877 31.1634C48.9937 30.1174 49.552 28.7793 49.552 27.149C49.552 26.4976 49.4357 25.8229 49.203 25.125C48.9704 24.4271 48.5517 23.7757 47.9468 23.1708L35.4541 10.6781C36.2451 9.93369 37.1291 9.36419 38.1062 8.96964C39.0833 8.57508 40.0603 8.37687 41.0374 8.37501C42.2471 8.37501 43.3638 8.57322 44.3874 8.96964C45.411 9.36605 46.3416 9.98208 47.1791 10.8177L58.9739 22.6823C59.8114 23.5198 60.4283 24.4504 60.8248 25.474C61.2212 26.4976 61.4184 27.684 61.4166 29.0333C61.4166 29.9639 61.2072 30.9066 60.7885 31.8613C60.3697 32.8161 59.7649 33.688 58.9739 34.4771L35.7333 57.7875C35.361 58.1597 35.0353 58.3924 34.7562 58.4854C34.477 58.5785 34.1513 58.625 33.7791 58.625ZM9.84054 36.2917L8.02596 34.4771C7.23499 33.7327 6.63013 32.8486 6.21138 31.825C5.79263 30.8014 5.58325 29.7313 5.58325 28.6146C5.58325 27.4049 5.81589 26.2882 6.28117 25.2646C6.74645 24.241 7.32804 23.3802 8.02596 22.6823L19.8208 10.8177C20.5652 10.0733 21.4492 9.47958 22.4728 9.03664C23.4964 8.59369 24.4968 8.37315 25.4739 8.37501C26.7301 8.37501 27.8468 8.54996 28.8239 8.89984C29.801 9.24973 30.7548 9.88903 31.6853 10.8177L45.9926 25.125C46.2718 25.4042 46.4812 25.7066 46.6208 26.0323C46.7603 26.358 46.8301 26.707 46.8301 27.0792C46.8301 27.8236 46.551 28.475 45.9926 29.0333C45.4343 29.5917 44.7829 29.8708 44.0385 29.8708C43.6197 29.8708 43.2708 29.8132 42.9916 29.6978C42.7124 29.5824 42.41 29.3609 42.0843 29.0333L29.5218 16.6104L9.84054 36.2917Z" fill="#03579B"/>
</svg>
