<svg width="91" height="85" viewBox="0 0 91 85" fill="none" xmlns="http://www.w3.org/2000/svg">
<path d="M70.1458 10.625H60.6666C60.1638 10.625 59.6816 10.8116 59.326 11.1437C58.9705 11.4758 58.7708 11.9262 58.7708 12.3958V12.6048L72.0416 22.5215V12.3958C72.0416 11.9262 71.8418 11.4758 71.4863 11.1437C71.1308 10.8116 70.6486 10.625 70.1458 10.625Z" fill="white"/>
<path d="M40.7605 33.6458C40.7605 32.4717 41.2598 31.3457 42.1487 30.5154C43.0375 29.6852 44.2431 29.2188 45.5001 29.2188C46.7571 29.2188 47.9626 29.6852 48.8515 30.5154C49.7403 31.3457 50.2397 32.4717 50.2397 33.6458C50.2397 34.82 49.7403 35.946 48.8515 36.7763C47.9626 37.6065 46.7571 38.0729 45.5001 38.0729C44.2431 38.0729 43.0375 37.6065 42.1487 36.7763C41.2598 35.946 40.7605 34.82 40.7605 33.6458Z" fill="white"/>
<path fill-rule="evenodd" clip-rule="evenodd" d="M78.6772 38.8167L81.6423 41.0338C82.2326 41.4635 82.9804 41.6585 83.7236 41.5766C84.4667 41.4947 85.1454 41.1424 85.6124 40.5962C86.0794 40.0501 86.2971 39.3539 86.2183 38.6588C86.1394 37.9637 85.7705 37.3257 85.1913 36.883L54.384 13.8621C51.8626 11.9775 48.7295 10.9507 45.5002 10.9507C42.2708 10.9507 39.1377 11.9775 36.6163 13.8621L5.809 36.883C5.21971 37.323 4.84171 37.9637 4.75816 38.6641C4.67461 39.3645 4.89235 40.0672 5.36348 40.6177C5.8346 41.1681 6.52053 41.5212 7.27036 41.5992C8.02019 41.6772 8.7725 41.4739 9.36179 41.0338L12.3231 38.8167V75.2605H7.5835C6.82929 75.2605 6.10597 75.5403 5.57266 76.0385C5.03935 76.5366 4.73975 77.2122 4.73975 77.9167C4.73975 78.6212 5.03935 79.2968 5.57266 79.795C6.10597 80.2931 6.82929 80.573 7.5835 80.573H83.4168C84.171 80.573 84.8944 80.2931 85.4277 79.795C85.961 79.2968 86.2606 78.6212 86.2606 77.9167C86.2606 77.2122 85.961 76.5366 85.4277 76.0385C84.8944 75.5403 84.171 75.2605 83.4168 75.2605H78.6772V38.8167ZM35.0731 33.6459C35.0731 31.0628 36.1716 28.5855 38.1271 26.759C40.0826 24.9324 42.7347 23.9063 45.5002 23.9063C48.2656 23.9063 50.9178 24.9324 52.8732 26.759C54.8287 28.5855 55.9272 31.0628 55.9272 33.6459C55.9272 36.229 54.8287 38.7063 52.8732 40.5328C50.9178 42.3593 48.2656 43.3855 45.5002 43.3855C42.7347 43.3855 40.0826 42.3593 38.1271 40.5328C36.1716 38.7063 35.0731 36.229 35.0731 33.6459ZM45.6897 46.9271C48.2074 46.9271 50.38 46.9271 52.1204 47.1467C53.9859 47.3805 55.7718 47.9082 57.2202 49.2611C58.6686 50.614 59.2336 52.2821 59.4838 54.0246C59.7037 55.5476 59.7189 57.4246 59.7189 59.5957V75.2605H54.0314V60.2084C54.0314 57.6301 54.0238 55.9584 53.8494 54.733C53.6826 53.5819 53.4172 53.2207 53.1972 53.0188C52.9773 52.8169 52.5944 52.5655 51.3621 52.4096C50.0464 52.2467 48.2605 52.2396 45.5002 52.2396C42.7398 52.2396 40.9502 52.2467 39.6382 52.4096C38.406 52.5655 38.0192 52.8169 37.8031 53.0188C37.587 53.2207 37.3177 53.5819 37.1509 54.733C36.9765 55.9619 36.9689 57.6301 36.9689 60.2084V75.2605H31.2814V60.0313C31.2814 57.6796 31.2814 55.6503 31.5165 54.0246C31.7667 52.2821 32.3317 50.614 33.7801 49.2611C35.2285 47.9082 37.0182 47.3805 38.8799 47.1467C40.6203 46.9271 42.7929 46.9271 45.3144 46.9271H45.6897Z" fill="white"/>
<path d="M40.7605 33.6458C40.7605 32.4717 41.2598 31.3457 42.1487 30.5154C43.0375 29.6852 44.2431 29.2188 45.5001 29.2188C46.7571 29.2188 47.9626 29.6852 48.8515 30.5154C49.7403 31.3457 50.2397 32.4717 50.2397 33.6458C50.2397 34.82 49.7403 35.946 48.8515 36.7763C47.9626 37.6065 46.7571 38.0729 45.5001 38.0729C44.2431 38.0729 43.0375 37.6065 42.1487 36.7763C41.2598 35.946 40.7605 34.82 40.7605 33.6458Z" fill="white"/>
</svg>
