<svg width="75" height="70" viewBox="0 0 75 70" fill="none" xmlns="http://www.w3.org/2000/svg">
<path d="M37.5 0L75 15V20H70C70 20.6771 69.7331 21.263 69.1992 21.7578C68.6654 22.2526 68.0339 22.5 67.3047 22.5H7.69531C6.96615 22.5 6.33464 22.2526 5.80078 21.7578C5.26693 21.263 5 20.6771 5 20H0V15L37.5 0ZM10 25H20V55H25V25H35V55H40V25H50V55H55V25H65V55H67.3047C68.0339 55 68.6654 55.2474 69.1992 55.7422C69.7331 56.237 70 56.8229 70 57.5V60H5V57.5C5 56.8229 5.26693 56.237 5.80078 55.7422C6.33464 55.2474 6.96615 55 7.69531 55H10V25ZM72.3047 62.5C73.0339 62.5 73.6654 62.7474 74.1992 63.2422C74.7331 63.737 75 64.3229 75 65V70H0V65C0 64.3229 0.266927 63.737 0.800781 63.2422C1.33464 62.7474 1.96615 62.5 2.69531 62.5H72.3047Z" fill="white"/>
</svg>
