<?xml version="1.0" encoding="UTF-8" standalone="no"?>
<svg
   width="18.853001"
   height="24.150499"
   viewBox="0 0 18.853001 24.150499"
   fill="none"
   version="1.1"
   id="svg35"
   sodipodi:docname="ipsumBlanco.svg"
   inkscape:version="1.3.2 (091e20e, 2023-11-25, custom)"
   xmlns:inkscape="http://www.inkscape.org/namespaces/inkscape"
   xmlns:sodipodi="http://sodipodi.sourceforge.net/DTD/sodipodi-0.dtd"
   xmlns="http://www.w3.org/2000/svg"
   xmlns:svg="http://www.w3.org/2000/svg">
  <defs
     id="defs35" />
  <sodipodi:namedview
     id="namedview35"
     pagecolor="#ffffff"
     bordercolor="#000000"
     borderopacity="0.25"
     inkscape:showpageshadow="2"
     inkscape:pageopacity="0.0"
     inkscape:pagecheckerboard="0"
     inkscape:deskcolor="#d1d1d1"
     inkscape:zoom="11.860215"
     inkscape:cx="36.38214"
     inkscape:cy="7.7148685"
     inkscape:window-width="1920"
     inkscape:window-height="1057"
     inkscape:window-x="-8"
     inkscape:window-y="-8"
     inkscape:window-maximized="1"
     inkscape:current-layer="svg35" />
  <path
     d="m 9.26724,0 v 4.32999 c 0,0 -3.24875,1.03685 -8.05098,5.0009 V 11.389 c 0,0 4.76403,-4.02496 8.05098,-4.43654 v 3.88784 c 0,0 -4.92316,1.0978 -9.26724,4.574 V 7.70703 C 0,7.70703 4.5032,1.46348 9.26724,0 Z"
     fill="#797778"
     id="path31"
     style="fill:#ffffff" />
  <path
     d="m 0,16.7865 v 7.364 h 9.26724 v -4.0706 c 0,0 -3.30148,-0.1372 -7.81921,1.3265 v -2.1956 c 0,0 3.12759,-1.4637 7.81921,-1.8296 V 13.234 c 0,0 -5.6815,1.2503 -9.26724,3.5525 z"
     fill="#797778"
     id="path32"
     style="fill:#ffffff" />
  <path
     d="m 18.853,7.70703 v 3.49917 c 0,0 -5.6182,-6.114 -9.58591,-6.87621 V 0 c 0,0 4.63371,1.41783 9.58591,7.70703 z"
     fill="#C3C3C3"
     id="path33"
     style="fill:#ffffff" />
  <path
     d="m 9.26709,6.95245 c 0,0 5.45911,1.23499 9.58591,5.35155 v 7.1355 c 0,0 -5.3576,-2.1042 -9.58591,-2.0584 V 13.234 c 0,0 6.50171,1.7687 7.32711,2.6834 v -1.8753 c 0,0 -3.3594,-2.47 -7.32711,-3.2018 z"
     fill="#C3C3C3"
     id="path34"
     style="fill:#ffffff" />
  <path
     d="m 9.26709,20.0799 c 0,0 7.80491,0.4115 9.58591,1.1891 v 2.8815 H 9.26709 Z"
     fill="#C3C3C3"
     id="path35"
     style="fill:#ffffff" />
</svg>
