<svg width="68" height="68" viewBox="0 0 68 68" fill="none" xmlns="http://www.w3.org/2000/svg">
<path d="M33.9999 35.4166C31.3699 35.4166 28.8475 36.4614 26.9878 38.3212C25.128 40.1809 24.0833 42.7032 24.0833 45.3333C24.0833 47.9634 25.128 50.4857 26.9878 52.3454C28.8475 54.2052 31.3699 55.25 33.9999 55.25C36.63 55.25 39.1523 54.2052 41.0121 52.3454C42.8718 50.4857 43.9166 47.9634 43.9166 45.3333C43.9166 42.7032 42.8718 40.1809 41.0121 38.3212C39.1523 36.4614 36.63 35.4166 33.9999 35.4166ZM29.7499 45.3333C29.7499 44.2061 30.1977 43.1251 30.9947 42.3281C31.7917 41.5311 32.8727 41.0833 33.9999 41.0833C35.1271 41.0833 36.2081 41.5311 37.0051 42.3281C37.8022 43.1251 38.2499 44.2061 38.2499 45.3333C38.2499 46.4605 37.8022 47.5415 37.0051 48.3385C36.2081 49.1355 35.1271 49.5833 33.9999 49.5833C32.8727 49.5833 31.7917 49.1355 30.9947 48.3385C30.1977 47.5415 29.7499 46.4605 29.7499 45.3333Z" fill="#03579B"/>
<path d="M49.657 14.4954L40.6498 1.86719L7.531 28.3249L5.695 28.305V28.3334H4.25V62.3334H63.75V28.3334H61.0243L55.6013 12.4695L49.657 14.4954ZM55.0375 28.3334H26.6248L47.787 21.1197L52.0993 19.7399L55.0375 28.3334ZM44.0583 16.405L22.2133 23.851L39.5137 10.03L44.0583 16.405ZM9.91667 51.4789V39.1822C11.1128 38.76 12.1993 38.0755 13.0965 37.1788C13.9937 36.2821 14.6788 35.1959 15.1017 34H52.8983C53.3208 35.1965 54.0058 36.2832 54.903 37.1804C55.8002 38.0776 56.8869 38.7626 58.0833 39.185V51.4817C56.8869 51.9041 55.8002 52.5891 54.903 53.4863C54.0058 54.3835 53.3208 55.4702 52.8983 56.6667H15.1073C14.6829 55.4701 13.9966 54.3834 13.0986 53.4859C12.2005 52.5884 11.1135 51.9027 9.91667 51.4789Z" fill="#03579B"/>
</svg>
