<svg width="31" height="32" viewBox="0 0 31 32" fill="none" xmlns="http://www.w3.org/2000/svg">
<g filter="url(#filter0_d_694_204)">
<path d="M10.0234 10.4062C10.1109 9.62195 11.0104 8.55606 11.7242 8.67433L11.723 8.67304C12.4177 8.82263 12.9676 10.1775 13.2777 10.7868C13.4974 11.2288 13.3548 11.6766 13.1498 11.8656C12.8734 12.1181 12.4411 12.4665 12.5318 12.8163C12.693 13.4382 14.6075 15.6077 15.5492 16.2244C15.9056 16.4579 16.164 15.8422 16.3847 15.5267C16.5451 15.2841 16.9406 15.1391 17.3298 15.3786C17.9111 15.7622 18.4586 16.208 18.965 16.7098C19.2178 16.9493 19.2772 17.3033 19.102 17.6774C18.7934 18.3363 17.9007 19.2052 17.2528 19.0287C16.1211 18.7203 11.5443 16.7098 10.0742 10.8851C9.99154 10.6096 10.0124 10.5054 10.0234 10.4062Z" fill="#32BA00"/>
<path fill-rule="evenodd" clip-rule="evenodd" d="M15.0251 23.9862C13.91 23.9862 13.293 23.8609 12.291 23.5092L10.372 24.5135C9.16008 25.1477 7.73412 24.2253 7.73412 22.807V20.6474C5.77152 18.732 5 16.5234 5 13.4931C5 7.69791 9.4884 3 15.0251 3C20.5618 3 25.0502 7.69791 25.0502 13.4931C25.0502 19.2882 20.5618 23.9862 15.0251 23.9862ZM9.55687 19.8178L8.97719 19.2521C7.45239 17.764 6.82275 16.1002 6.82275 13.4931C6.82275 8.75158 10.4951 4.90783 15.0251 4.90783C19.5552 4.90783 23.2275 8.75158 23.2275 13.4931C23.2275 18.2346 19.5552 22.0783 15.0251 22.0783C14.1268 22.0783 13.7055 21.9934 12.8706 21.7004L12.1529 21.4485L9.55687 22.807V19.8178Z" fill="#32BA00"/>
</g>
<defs>
<filter id="filter0_d_694_204" x="0" y="0" width="30.0498" height="31.7173" filterUnits="userSpaceOnUse" color-interpolation-filters="sRGB">
<feFlood flood-opacity="0" result="BackgroundImageFix"/>
<feColorMatrix in="SourceAlpha" type="matrix" values="0 0 0 0 0 0 0 0 0 0 0 0 0 0 0 0 0 0 127 0" result="hardAlpha"/>
<feOffset dy="2"/>
<feGaussianBlur stdDeviation="2.5"/>
<feComposite in2="hardAlpha" operator="out"/>
<feColorMatrix type="matrix" values="0 0 0 0 0 0 0 0 0 0 0 0 0 0 0 0 0 0 0.25 0"/>
<feBlend mode="normal" in2="BackgroundImageFix" result="effect1_dropShadow_694_204"/>
<feBlend mode="normal" in="SourceGraphic" in2="effect1_dropShadow_694_204" result="shape"/>
</filter>
</defs>
</svg>
